<svg xmlns="http://www.w3.org/2000/svg" viewBox="0 0 840 260" role="img" aria-labelledby="title desc">
  <title id="title">NKSearch.jl logo</title>
  <desc id="desc">A trajectory converging onto a limit cycle in a phase plane, with Julia-coloured multiple-shooting seed points, and the NKSearch.jl wordmark.</desc>
  <defs>
    <linearGradient id="panel" x1="0" x2="1" y1="0" y2="1">
      <stop offset="0" stop-color="#ffffff"/>
      <stop offset="1" stop-color="#f6f8fb"/>
    </linearGradient>
    <filter id="shadow" x="-10%" y="-20%" width="120%" height="140%">
      <feDropShadow dx="0" dy="8" stdDeviation="10" flood-color="#172033" flood-opacity="0.14"/>
    </filter>
  </defs>

  <rect x="24" y="24" width="792" height="212" rx="28" fill="url(#panel)" filter="url(#shadow)"/>

  <g transform="translate(74 38)">
    <g stroke="#d7dce6" stroke-width="2" stroke-linecap="round">
      <line x1="14" y1="96" x2="286" y2="96"/>
      <line x1="150" y1="6" x2="150" y2="186"/>
      <line x1="62" y1="20" x2="62" y2="172" opacity="0.55"/>
      <line x1="238" y1="20" x2="238" y2="172" opacity="0.55"/>
      <line x1="26" y1="40" x2="274" y2="40" opacity="0.55"/>
      <line x1="26" y1="152" x2="274" y2="152" opacity="0.55"/>
    </g>

    <polyline points="150.0,0.3 158.43,0.75 166.78,1.42 175.03,2.33 183.16,3.46 191.15,4.81 198.99,6.38 206.65,8.15 214.12,10.13 221.37,12.3 228.4,14.67 235.19,17.22 241.72,19.94 247.97,22.84 253.94,25.89 259.61,29.09 264.97,32.44 270.01,35.91 274.72,39.51 279.08,43.22 283.09,47.04 286.75,50.95 290.04,54.93 292.96,59.0 295.51,63.12 297.68,67.29 299.47,71.5 300.88,75.74 301.91,80.0 302.55,84.26 302.82,88.52 302.7,92.77 302.21,96.99 301.35,101.18 300.12,105.32 298.53,109.41 296.59,113.43 294.3,117.37 291.67,121.24 288.71,125.01 285.44,128.68 281.85,132.24 277.97,135.68 273.81,138.99 269.37,142.18 264.68,145.22 259.74,148.12 254.57,150.86 249.18,153.45 243.6,155.87 237.83,158.13 231.88,160.21 225.79,162.12 219.56,163.85 213.21,165.39 206.76,166.75 200.23,167.93 193.62,168.92 186.96,169.72 180.27,170.33 173.56,170.75 166.86,170.98 160.16,171.02 153.51,170.88 146.9,170.56 140.35,170.05 133.89,169.37 127.53,168.51 121.28,167.48 115.15,166.28 109.17,164.92 103.34,163.39 97.69,161.72 92.21,159.9 86.92,157.94 81.84,155.84 76.98,153.61 72.34,151.26 67.94,148.8 63.78,146.23 59.88,143.56 56.23,140.79 52.86,137.94 49.75,135.02 46.93,132.02 44.39,128.97 42.13,125.86 40.16,122.71 38.49,119.53 37.11,116.31 36.02,113.08" fill="none" stroke="#aab2bf" stroke-width="5" stroke-linecap="round" stroke-linejoin="round"/>

    <ellipse cx="150.0" cy="96.0" rx="118.0" ry="66.0" fill="none" stroke="#2f3441" stroke-width="8"/>

    <polygon points="253.7,62.5 227.1,55.5 237.1,40.5" fill="#2f3441"/>

    <g stroke="#ffffff" stroke-width="5">
      <circle cx="150.0" cy="30.0" r="15" fill="#389826"/>
      <circle cx="268.0" cy="96.0" r="15" fill="#9558b2"/>
      <circle cx="150.0" cy="162.0" r="15" fill="#cb3c33"/>
      <circle cx="32.0" cy="96.0" r="15" fill="#4063d8"/>
    </g>
  </g>

  <g transform="translate(412 70)">
    <text x="0" y="54" font-family="Inter, Avenir, Helvetica, Arial, sans-serif" font-size="54" font-weight="800" fill="#242936">NKSearch.jl</text>
    <text x="2" y="92" font-family="Inter, Avenir, Helvetica, Arial, sans-serif" font-size="20" font-weight="600" fill="#5c6475">Newton–Krylov search for periodic</text>
    <text x="2" y="120" font-family="Inter, Avenir, Helvetica, Arial, sans-serif" font-size="20" font-weight="600" fill="#5c6475">orbits via multiple shooting</text>
  </g>
</svg>
